<svg width="32" height="32" viewBox="0 0 32 32" fill="none" xmlns="http://www.w3.org/2000/svg">
<path d="M10.3431 8.92864C9.95257 8.53811 9.3194 8.53811 8.92888 8.92864C8.53836 9.31916 8.53836 9.95232 8.92888 10.3428L14.5858 15.9997L8.92895 21.6566C8.53843 22.0471 8.53843 22.6802 8.92895 23.0708C9.31948 23.4613 9.95264 23.4613 10.3432 23.0708L16 17.414L21.6568 23.0708C22.0473 23.4613 22.6805 23.4613 23.071 23.0708C23.4615 22.6802 23.4615 22.0471 23.071 21.6566L17.4142 15.9997L23.0711 10.3429C23.4616 9.95233 23.4616 9.31916 23.0711 8.92864C22.6806 8.53811 22.0474 8.53811 21.6569 8.92864L16 14.5855L10.3431 8.92864Z" fill="white"/>
</svg>
